<svg width="32" height="32" viewBox="0 0 32 32" fill="none" xmlns="http://www.w3.org/2000/svg">
<path d="M17.332 10.0003C17.332 10.3539 17.1916 10.6931 16.9415 10.9431C16.6915 11.1932 16.3523 11.3337 15.9987 11.3337C15.6451 11.3337 15.3059 11.1932 15.0559 10.9431C14.8058 10.6931 14.6654 10.3539 14.6654 10.0003C14.6654 9.6467 14.8058 9.30757 15.0559 9.05752C15.3059 8.80747 15.6451 8.66699 15.9987 8.66699C16.3523 8.66699 16.6915 8.80747 16.9415 9.05752C17.1916 9.30757 17.332 9.6467 17.332 10.0003ZM13.332 15.0003C13.332 14.7351 13.4374 14.4808 13.6249 14.2932C13.8125 14.1057 14.0668 14.0003 14.332 14.0003H16.332C16.5972 14.0003 16.8516 14.1057 17.0391 14.2932C17.2267 14.4808 17.332 14.7351 17.332 15.0003V20.667H18.332C18.5973 20.667 18.8516 20.7723 19.0391 20.9599C19.2267 21.1474 19.332 21.4018 19.332 21.667C19.332 21.9322 19.2267 22.1866 19.0391 22.3741C18.8516 22.5616 18.5973 22.667 18.332 22.667H14.332C14.0668 22.667 13.8125 22.5616 13.6249 22.3741C13.4374 22.1866 13.332 21.9322 13.332 21.667C13.332 21.4018 13.4374 21.1474 13.6249 20.9599C13.8125 20.7723 14.0668 20.667 14.332 20.667H15.332V16.0003H14.332C14.0668 16.0003 13.8125 15.895 13.6249 15.7074C13.4374 15.5199 13.332 15.2655 13.332 15.0003Z" fill="#EC0606"/>
<path fill-rule="evenodd" clip-rule="evenodd" d="M15.9987 1.33301C7.8987 1.33301 1.33203 7.89967 1.33203 15.9997C1.33203 24.0997 7.8987 30.6663 15.9987 30.6663C24.0987 30.6663 30.6654 24.0997 30.6654 15.9997C30.6654 7.89967 24.0987 1.33301 15.9987 1.33301ZM3.33203 15.9997C3.33203 12.6403 4.66655 9.41845 7.04201 7.04299C9.41747 4.66753 12.6393 3.33301 15.9987 3.33301C19.3581 3.33301 22.5799 4.66753 24.9554 7.04299C27.3308 9.41845 28.6654 12.6403 28.6654 15.9997C28.6654 19.3591 27.3308 22.5809 24.9554 24.9564C22.5799 27.3318 19.3581 28.6663 15.9987 28.6663C12.6393 28.6663 9.41747 27.3318 7.04201 24.9564C4.66655 22.5809 3.33203 19.3591 3.33203 15.9997Z" fill="#EC0606"/>
</svg>
