<svg width="24" height="24" viewBox="0 0 24 24" fill="none" xmlns="http://www.w3.org/2000/svg">
<path d="M18.3158 10.6053H12.5V4.78947H5.78947V20H18.3158V10.6053ZM20.1052 21.7895H4V3H14.4013L20.1052 8.70395V21.7895ZM14.2895 5.34868V8.81579H17.7565L14.2895 5.34868ZM8.92105 19.1053V15.5263H10.2632C11.0044 15.5263 11.6053 15.9035 11.6053 16.6447C11.6053 17.386 11.0044 17.7632 10.2632 17.7632H9.81579V19.1053H8.92105ZM10.2632 16.8684C10.5102 16.8684 10.7105 16.8918 10.7105 16.6447C10.7105 16.3977 10.5102 16.4211 10.2632 16.4211H9.81579V16.8684H10.2632ZM15.1842 19.1053V15.5263H17.4211V16.4211H16.0789V16.8684H16.9737V17.7632H16.0789V19.1053H15.1842ZM12.0526 15.5263H13.3947C14.136 15.5263 14.7368 16.1272 14.7368 16.8684V17.7632C14.7368 18.5044 14.136 19.1053 13.3947 19.1053H12.0526V15.5263ZM13.8421 17.7632V16.8684C13.8421 16.6213 13.6418 16.4211 13.3947 16.4211H12.9474V18.2105H13.3947C13.6418 18.2105 13.8421 18.0102 13.8421 17.7632Z" fill="#EC0606"/>
</svg>
