<svg width="18" height="18" viewBox="0 0 18 18" fill="none" xmlns="http://www.w3.org/2000/svg">
<path d="M3.74109 0V0.75H0.745117V17.25H17.223V0.75H14.227V0H12.729V0.75H5.23908V0H3.74109ZM2.2431 2.25H3.74109V3H5.23908V2.25H12.729V3H14.227V2.25H15.725V3.75H2.2431V2.25ZM2.2431 5.25H15.725V15.75H2.2431V5.25ZM6.73706 6.75V8.25H8.23505V6.75H6.73706ZM9.73304 6.75V8.25H11.231V6.75H9.73304ZM12.729 6.75V8.25H14.227V6.75H12.729ZM3.74109 9.75V11.25H5.23908V9.75H3.74109ZM6.73706 9.75V11.25H8.23505V9.75H6.73706ZM9.73304 9.75V11.25H11.231V9.75H9.73304ZM12.729 9.75V11.25H14.227V9.75H12.729ZM3.74109 12.75V14.25H5.23908V12.75H3.74109ZM6.73706 12.75V14.25H8.23505V12.75H6.73706ZM9.73304 12.75V14.25H11.231V12.75H9.73304Z" fill="#EC0606"/>
</svg>
