<svg width="172" height="62" viewBox="0 0 172 62" fill="none" xmlns="http://www.w3.org/2000/svg">
<g clip-path="url(#clip0_1611_23671)">
<path d="M86.0002 11.3333C86.7826 11.3333 87.4168 10.6991 87.4168 9.91667C87.4168 9.13426 86.7826 8.5 86.0002 8.5C85.2178 8.5 84.5835 9.13426 84.5835 9.91667C84.5835 10.6991 85.2178 11.3333 86.0002 11.3333Z" fill="#E7EBF1"/>
<path d="M98.75 7.08317H97.3333V5.6665C97.3333 4.53933 96.8856 3.45833 96.0885 2.6613C95.2915 1.86427 94.2105 1.4165 93.0833 1.4165H73.25C72.1228 1.4165 71.0418 1.86427 70.2448 2.6613C69.4478 3.45833 69 4.53933 69 5.6665V22.6665C69 23.7937 69.4478 24.8747 70.2448 25.6717C71.0418 26.4687 72.1228 26.9165 73.25 26.9165H74.6667V28.3332C74.6667 29.4603 75.1144 30.5413 75.9115 31.3384C76.7085 32.1354 77.7895 32.5832 78.9167 32.5832H98.75C99.8772 32.5832 100.958 32.1354 101.755 31.3384C102.552 30.5413 103 29.4603 103 28.3332V11.3332C103 10.206 102.552 9.125 101.755 8.32797C100.958 7.53094 99.8772 7.08317 98.75 7.08317ZM73.25 4.24984H93.0833C93.4591 4.24984 93.8194 4.39909 94.0851 4.66477C94.3507 4.93045 94.5 5.29078 94.5 5.6665V17.8357L89.8392 13.1607C89.7075 13.0279 89.5508 12.9225 89.3781 12.8506C89.2055 12.7787 89.0203 12.7416 88.8333 12.7416C88.6463 12.7416 88.4611 12.7787 88.2885 12.8506C88.1159 12.9225 87.9592 13.0279 87.8275 13.1607L84.5833 16.419L79.9225 11.744C79.7908 11.6112 79.6341 11.5058 79.4615 11.4339C79.2888 11.362 79.1037 11.325 78.9167 11.325C78.7296 11.325 78.5445 11.362 78.3718 11.4339C78.1992 11.5058 78.0425 11.6112 77.9108 11.744L71.8333 17.8357V5.6665C71.8333 5.29078 71.9826 4.93045 72.2483 4.66477C72.5139 4.39909 72.8743 4.24984 73.25 4.24984ZM71.8333 22.6665V21.8307L78.9167 14.7473L83.5775 19.4223C83.7092 19.5551 83.8659 19.6605 84.0385 19.7324C84.2112 19.8044 84.3963 19.8414 84.5833 19.8414C84.7703 19.8414 84.9555 19.8044 85.1282 19.7324C85.3008 19.6605 85.4575 19.5551 85.5892 19.4223L88.8333 16.164L94.5 21.8307V22.6665C94.5 23.0422 94.3507 23.4026 94.0851 23.6682C93.8194 23.9339 93.4591 24.0832 93.0833 24.0832H73.25C72.8743 24.0832 72.5139 23.9339 72.2483 23.6682C71.9826 23.4026 71.8333 23.0422 71.8333 22.6665ZM100.167 28.3332C100.167 28.7089 100.017 29.0692 99.7517 29.3349C99.4861 29.6006 99.1257 29.7498 98.75 29.7498H78.9167C78.5409 29.7498 78.1806 29.6006 77.9149 29.3349C77.6493 29.0692 77.5 28.7089 77.5 28.3332V26.9165H93.0833C94.2105 26.9165 95.2915 26.4687 96.0885 25.6717C96.8856 24.8747 97.3333 23.7937 97.3333 22.6665V9.9165H98.75C99.1257 9.9165 99.4861 10.0658 99.7517 10.3314C100.017 10.5971 100.167 10.9574 100.167 11.3332V28.3332Z" fill="#E7EBF1"/>
</g>
<path d="M5.89785 57.448C5.80452 57.448 5.72519 57.4153 5.65985 57.35C5.59452 57.294 5.56185 57.2147 5.56185 57.112V56.076C2.76185 56.076 1.25918 54.8533 1.05385 52.408L1.03985 51.904L1.05385 51.4C1.11918 50.2053 1.54852 49.2907 2.34185 48.656C3.13519 48.0213 4.20852 47.704 5.56185 47.704V46.836C5.56185 46.7333 5.59452 46.654 5.65985 46.598C5.72519 46.5327 5.80452 46.5 5.89785 46.5H7.19985C7.30252 46.5 7.38185 46.5327 7.43785 46.598C7.50319 46.654 7.53585 46.7333 7.53585 46.836V47.704C8.88919 47.704 9.96252 48.0213 10.7559 48.656C11.5492 49.2907 11.9785 50.2053 12.0439 51.4C12.0532 51.5493 12.0579 51.7407 12.0579 51.974C12.0579 52.1513 12.0532 52.296 12.0439 52.408C11.8479 54.8533 10.3452 56.076 7.53585 56.076V57.112C7.53585 57.2147 7.50319 57.294 7.43785 57.35C7.38185 57.4153 7.30252 57.448 7.19985 57.448H5.89785ZM5.57585 49.342C4.80118 49.342 4.20852 49.5147 3.79785 49.86C3.38719 50.196 3.14919 50.728 3.08385 51.456L3.06985 51.89L3.08385 52.338C3.16785 53.7473 3.99852 54.452 5.57585 54.452V49.342ZM7.52185 54.452C9.11785 54.452 9.94852 53.7473 10.0139 52.338C10.0232 52.2447 10.0279 52.072 10.0279 51.82C10.0279 51.6427 10.0232 51.5213 10.0139 51.456C9.94852 50.728 9.70585 50.196 9.28585 49.86C8.87519 49.5147 8.28719 49.342 7.52185 49.342V54.452ZM17.6659 57.14C16.3873 57.14 15.3933 56.818 14.6839 56.174C13.9746 55.53 13.6013 54.5733 13.5639 53.304C13.5546 53.0333 13.5499 52.6367 13.5499 52.114C13.5499 51.582 13.5546 51.1807 13.5639 50.91C13.6013 49.6687 13.9839 48.7167 14.7119 48.054C15.4399 47.3913 16.4246 47.06 17.6659 47.06C18.8979 47.06 19.8779 47.3913 20.6059 48.054C21.3433 48.7167 21.7306 49.6687 21.7679 50.91C21.7866 51.4513 21.7959 51.8527 21.7959 52.114C21.7959 52.366 21.7866 52.7627 21.7679 53.304C21.7306 54.5733 21.3526 55.53 20.6339 56.174C19.9246 56.818 18.9353 57.14 17.6659 57.14ZM17.6659 55.516C18.2913 55.516 18.7859 55.3293 19.1499 54.956C19.5139 54.5827 19.7099 54.0087 19.7379 53.234C19.7566 52.674 19.7659 52.296 19.7659 52.1C19.7659 51.8853 19.7566 51.5073 19.7379 50.966C19.7099 50.2007 19.5093 49.6313 19.1359 49.258C18.7626 48.8753 18.2726 48.684 17.6659 48.684C17.0499 48.684 16.5553 48.8753 16.1819 49.258C15.8086 49.6313 15.6126 50.2007 15.5939 50.966C15.5846 51.2367 15.5799 51.6147 15.5799 52.1C15.5799 52.576 15.5846 52.954 15.5939 53.234C15.6126 53.9993 15.8039 54.5733 16.1679 54.956C16.5413 55.3293 17.0406 55.516 17.6659 55.516ZM26.1123 57C26.019 57 25.9397 56.9673 25.8743 56.902C25.809 56.8367 25.7763 56.7573 25.7763 56.664V48.95H23.1863C23.093 48.95 23.0137 48.9173 22.9483 48.852C22.883 48.7867 22.8503 48.7027 22.8503 48.6V47.55C22.8503 47.4473 22.8783 47.3633 22.9343 47.298C22.9997 47.2327 23.0837 47.2 23.1863 47.2H30.3403C30.443 47.2 30.527 47.2327 30.5923 47.298C30.6577 47.3633 30.6903 47.4473 30.6903 47.55V48.6C30.6903 48.7027 30.6577 48.7867 30.5923 48.852C30.527 48.9173 30.443 48.95 30.3403 48.95H27.7643V56.664C27.7643 56.7573 27.7317 56.8367 27.6663 56.902C27.6103 56.9673 27.531 57 27.4283 57H26.1123ZM35.8906 57.14C34.6119 57.14 33.6179 56.818 32.9086 56.174C32.1992 55.53 31.8259 54.5733 31.7886 53.304C31.7792 53.0333 31.7746 52.6367 31.7746 52.114C31.7746 51.582 31.7792 51.1807 31.7886 50.91C31.8259 49.6687 32.2086 48.7167 32.9366 48.054C33.6646 47.3913 34.6492 47.06 35.8906 47.06C37.1226 47.06 38.1026 47.3913 38.8306 48.054C39.5679 48.7167 39.9552 49.6687 39.9926 50.91C40.0112 51.4513 40.0206 51.8527 40.0206 52.114C40.0206 52.366 40.0112 52.7627 39.9926 53.304C39.9552 54.5733 39.5772 55.53 38.8586 56.174C38.1492 56.818 37.1599 57.14 35.8906 57.14ZM35.8906 55.516C36.5159 55.516 37.0106 55.3293 37.3746 54.956C37.7386 54.5827 37.9346 54.0087 37.9626 53.234C37.9812 52.674 37.9906 52.296 37.9906 52.1C37.9906 51.8853 37.9812 51.5073 37.9626 50.966C37.9346 50.2007 37.7339 49.6313 37.3606 49.258C36.9872 48.8753 36.4972 48.684 35.8906 48.684C35.2746 48.684 34.7799 48.8753 34.4066 49.258C34.0332 49.6313 33.8372 50.2007 33.8186 50.966C33.8092 51.2367 33.8046 51.6147 33.8046 52.1C33.8046 52.576 33.8092 52.954 33.8186 53.234C33.8372 53.9993 34.0286 54.5733 34.3926 54.956C34.7659 55.3293 35.2652 55.516 35.8906 55.516ZM48.8105 57.14C47.5225 57.14 46.5238 56.8133 45.8145 56.16C45.1145 55.4973 44.7411 54.5593 44.6945 53.346C44.6851 53.094 44.6805 52.6833 44.6805 52.114C44.6805 51.5353 44.6851 51.1153 44.6945 50.854C44.7411 49.6593 45.1191 48.7307 45.8285 48.068C46.5378 47.396 47.5318 47.06 48.8105 47.06C49.6411 47.06 50.3645 47.2047 50.9805 47.494C51.5965 47.774 52.0725 48.1613 52.4085 48.656C52.7538 49.1507 52.9358 49.706 52.9545 50.322V50.35C52.9545 50.4247 52.9218 50.49 52.8565 50.546C52.8005 50.5927 52.7351 50.616 52.6605 50.616H51.3025C51.1905 50.616 51.1065 50.5927 51.0505 50.546C50.9945 50.49 50.9478 50.3967 50.9105 50.266C50.7705 49.6873 50.5278 49.2813 50.1825 49.048C49.8371 48.8053 49.3798 48.684 48.8105 48.684C47.4758 48.684 46.7805 49.4307 46.7245 50.924C46.7151 51.176 46.7105 51.5633 46.7105 52.086C46.7105 52.6087 46.7151 53.0053 46.7245 53.276C46.7805 54.7693 47.4758 55.516 48.8105 55.516C49.3705 55.516 49.8231 55.3993 50.1685 55.166C50.5231 54.9233 50.7705 54.5127 50.9105 53.934C50.9478 53.8033 50.9945 53.7147 51.0505 53.668C51.1065 53.612 51.1905 53.584 51.3025 53.584H52.6605C52.7445 53.584 52.8145 53.612 52.8705 53.668C52.9358 53.724 52.9638 53.794 52.9545 53.878C52.9358 54.494 52.7538 55.0493 52.4085 55.544C52.0725 56.0387 51.5965 56.4307 50.9805 56.72C50.3645 57 49.6411 57.14 48.8105 57.14ZM62.4685 56.524C62.4965 56.5613 62.5105 56.6127 62.5105 56.678C62.5105 56.762 62.4778 56.8367 62.4125 56.902C62.3565 56.9673 62.2818 57 62.1885 57H60.7185C60.5318 57 60.3918 56.9207 60.2985 56.762L57.9045 52.926H56.5885V56.664C56.5885 56.7573 56.5558 56.8367 56.4905 56.902C56.4251 56.9673 56.3411 57 56.2385 57H54.9505C54.8571 57 54.7778 56.9673 54.7125 56.902C54.6471 56.8367 54.6145 56.7573 54.6145 56.664V47.55C54.6145 47.4473 54.6425 47.3633 54.6985 47.298C54.7638 47.2327 54.8478 47.2 54.9505 47.2H56.2385C56.3411 47.2 56.4251 47.2327 56.4905 47.298C56.5558 47.3633 56.5885 47.4473 56.5885 47.55V51.148L57.7925 51.162L60.0465 47.452C60.1491 47.284 60.3171 47.2 60.5505 47.2H61.9785C62.0718 47.2 62.1418 47.228 62.1885 47.284C62.2445 47.34 62.2725 47.41 62.2725 47.494C62.2725 47.5407 62.2491 47.5967 62.2025 47.662L59.5705 51.932L62.4685 56.524ZM67.2949 57.14C66.0162 57.14 65.0222 56.818 64.3129 56.174C63.6035 55.53 63.2302 54.5733 63.1929 53.304C63.1835 53.0333 63.1789 52.6367 63.1789 52.114C63.1789 51.582 63.1835 51.1807 63.1929 50.91C63.2302 49.6687 63.6129 48.7167 64.3409 48.054C65.0689 47.3913 66.0535 47.06 67.2949 47.06C68.5269 47.06 69.5069 47.3913 70.2349 48.054C70.9722 48.7167 71.3595 49.6687 71.3969 50.91C71.4155 51.4513 71.4249 51.8527 71.4249 52.114C71.4249 52.366 71.4155 52.7627 71.3969 53.304C71.3595 54.5733 70.9815 55.53 70.2629 56.174C69.5535 56.818 68.5642 57.14 67.2949 57.14ZM67.2949 55.516C67.9202 55.516 68.4149 55.3293 68.7789 54.956C69.1429 54.5827 69.3389 54.0087 69.3669 53.234C69.3855 52.674 69.3949 52.296 69.3949 52.1C69.3949 51.8853 69.3855 51.5073 69.3669 50.966C69.3389 50.2007 69.1382 49.6313 68.7649 49.258C68.3915 48.8753 67.9015 48.684 67.2949 48.684C66.6789 48.684 66.1842 48.8753 65.8109 49.258C65.4375 49.6313 65.2415 50.2007 65.2229 50.966C65.2135 51.2367 65.2089 51.6147 65.2089 52.1C65.2089 52.576 65.2135 52.954 65.2229 53.234C65.2415 53.9993 65.4329 54.5733 65.7969 54.956C66.1702 55.3293 66.6695 55.516 67.2949 55.516ZM73.5852 57C73.4919 57 73.4126 56.9673 73.3472 56.902C73.2819 56.8367 73.2492 56.7573 73.2492 56.664V47.55C73.2492 47.4473 73.2772 47.3633 73.3332 47.298C73.3986 47.2327 73.4826 47.2 73.5852 47.2H77.3372C78.4666 47.2 79.3532 47.466 79.9972 47.998C80.6412 48.53 80.9632 49.3047 80.9632 50.322C80.9632 51.33 80.6412 52.0953 79.9972 52.618C79.3532 53.1313 78.4666 53.388 77.3372 53.388H75.2792V56.664C75.2792 56.7667 75.2466 56.8507 75.1812 56.916C75.1159 56.972 75.0319 57 74.9292 57H73.5852ZM77.2672 51.82C77.8086 51.82 78.2192 51.694 78.4992 51.442C78.7886 51.1807 78.9332 50.8027 78.9332 50.308C78.9332 49.8227 78.7932 49.4447 78.5132 49.174C78.2426 48.9033 77.8272 48.768 77.2672 48.768H75.2512V51.82H77.2672ZM86.2714 57.14C84.9927 57.14 83.9987 56.818 83.2894 56.174C82.5801 55.53 82.2067 54.5733 82.1694 53.304C82.1601 53.0333 82.1554 52.6367 82.1554 52.114C82.1554 51.582 82.1601 51.1807 82.1694 50.91C82.2067 49.6687 82.5894 48.7167 83.3174 48.054C84.0454 47.3913 85.0301 47.06 86.2714 47.06C87.5034 47.06 88.4834 47.3913 89.2114 48.054C89.9487 48.7167 90.3361 49.6687 90.3734 50.91C90.3921 51.4513 90.4014 51.8527 90.4014 52.114C90.4014 52.366 90.3921 52.7627 90.3734 53.304C90.3361 54.5733 89.9581 55.53 89.2394 56.174C88.5301 56.818 87.5407 57.14 86.2714 57.14ZM86.2714 55.516C86.8967 55.516 87.3914 55.3293 87.7554 54.956C88.1194 54.5827 88.3154 54.0087 88.3434 53.234C88.3621 52.674 88.3714 52.296 88.3714 52.1C88.3714 51.8853 88.3621 51.5073 88.3434 50.966C88.3154 50.2007 88.1147 49.6313 87.7414 49.258C87.3681 48.8753 86.8781 48.684 86.2714 48.684C85.6554 48.684 85.1607 48.8753 84.7874 49.258C84.4141 49.6313 84.2181 50.2007 84.1994 50.966C84.1901 51.2367 84.1854 51.6147 84.1854 52.1C84.1854 52.576 84.1901 52.954 84.1994 53.234C84.2181 53.9993 84.4094 54.5733 84.7734 54.956C85.1467 55.3293 85.6461 55.516 86.2714 55.516ZM95.7473 57C95.654 57 95.5747 56.9673 95.5093 56.902C95.444 56.8367 95.4113 56.7573 95.4113 56.664V47.55C95.4113 47.4473 95.4393 47.3633 95.4953 47.298C95.5607 47.2327 95.6447 47.2 95.7473 47.2H103.111C103.214 47.2 103.293 47.2327 103.349 47.298C103.415 47.3633 103.447 47.4473 103.447 47.55V56.664C103.447 56.7573 103.415 56.8367 103.349 56.902C103.293 56.9673 103.214 57 103.111 57H101.809C101.716 57 101.637 56.9673 101.571 56.902C101.506 56.8367 101.473 56.7573 101.473 56.664V48.978H97.3853V56.664C97.3853 56.7573 97.3527 56.8367 97.2873 56.902C97.222 56.9673 97.138 57 97.0353 57H95.7473ZM109.418 57.14C108.139 57.14 107.145 56.818 106.436 56.174C105.727 55.53 105.353 54.5733 105.316 53.304C105.307 53.0333 105.302 52.6367 105.302 52.114C105.302 51.582 105.307 51.1807 105.316 50.91C105.353 49.6687 105.736 48.7167 106.464 48.054C107.192 47.3913 108.177 47.06 109.418 47.06C110.65 47.06 111.63 47.3913 112.358 48.054C113.095 48.7167 113.483 49.6687 113.52 50.91C113.539 51.4513 113.548 51.8527 113.548 52.114C113.548 52.366 113.539 52.7627 113.52 53.304C113.483 54.5733 113.105 55.53 112.386 56.174C111.677 56.818 110.687 57.14 109.418 57.14ZM109.418 55.516C110.043 55.516 110.538 55.3293 110.902 54.956C111.266 54.5827 111.462 54.0087 111.49 53.234C111.509 52.674 111.518 52.296 111.518 52.1C111.518 51.8853 111.509 51.5073 111.49 50.966C111.462 50.2007 111.261 49.6313 110.888 49.258C110.515 48.8753 110.025 48.684 109.418 48.684C108.802 48.684 108.307 48.8753 107.934 49.258C107.561 49.6313 107.365 50.2007 107.346 50.966C107.337 51.2367 107.332 51.6147 107.332 52.1C107.332 52.576 107.337 52.954 107.346 53.234C107.365 53.9993 107.556 54.5733 107.92 54.956C108.293 55.3293 108.793 55.516 109.418 55.516ZM122.4 47.2C122.503 47.2 122.582 47.2327 122.638 47.298C122.704 47.354 122.736 47.4333 122.736 47.536V56.664C122.736 56.7573 122.704 56.8367 122.638 56.902C122.582 56.9673 122.503 57 122.4 57H121.112C121.01 57 120.926 56.972 120.86 56.916C120.795 56.8507 120.762 56.7667 120.762 56.664V53.472H119.222L117.36 56.622C117.304 56.7433 117.234 56.8367 117.15 56.902C117.066 56.9673 116.95 57 116.8 57H115.512C115.438 57 115.368 56.972 115.302 56.916C115.246 56.86 115.218 56.79 115.218 56.706C115.218 56.6593 115.232 56.608 115.26 56.552L117.29 53.234C116.702 53.01 116.245 52.6553 115.918 52.17C115.592 51.6753 115.428 51.0733 115.428 50.364C115.428 49.776 115.559 49.244 115.82 48.768C116.091 48.2827 116.488 47.9 117.01 47.62C117.542 47.34 118.182 47.2 118.928 47.2H122.4ZM120.762 48.768H118.998C118.513 48.768 118.135 48.9173 117.864 49.216C117.594 49.5053 117.458 49.8927 117.458 50.378C117.458 51.3673 117.972 51.862 118.998 51.862H120.762V48.768ZM125.251 57C125.158 57 125.079 56.9673 125.013 56.902C124.948 56.8367 124.915 56.7573 124.915 56.664V47.55C124.915 47.4473 124.943 47.3633 124.999 47.298C125.065 47.2327 125.149 47.2 125.251 47.2H129.311C130.403 47.2 131.22 47.4427 131.761 47.928C132.303 48.404 132.573 49.0573 132.573 49.888C132.573 50.3733 132.452 50.7887 132.209 51.134C131.976 51.47 131.701 51.7127 131.383 51.862C131.775 52.0393 132.107 52.3287 132.377 52.73C132.648 53.1313 132.783 53.5887 132.783 54.102C132.783 54.97 132.489 55.67 131.901 56.202C131.313 56.734 130.492 57 129.437 57H125.251ZM129.059 51.218C129.535 51.218 129.899 51.1013 130.151 50.868C130.413 50.6347 130.543 50.322 130.543 49.93C130.543 49.538 130.417 49.2347 130.165 49.02C129.913 48.8053 129.545 48.698 129.059 48.698H126.889V51.218H129.059ZM129.199 55.502C129.685 55.502 130.063 55.3713 130.333 55.11C130.604 54.8393 130.739 54.4987 130.739 54.088C130.739 53.6773 130.599 53.3413 130.319 53.08C130.049 52.8093 129.675 52.674 129.199 52.674H126.889V55.502H129.199ZM134.863 57C134.76 57 134.676 56.9673 134.611 56.902C134.555 56.8367 134.527 56.7527 134.527 56.65V47.55C134.527 47.4473 134.555 47.3633 134.611 47.298C134.676 47.2327 134.76 47.2 134.863 47.2H136.165C136.258 47.2 136.337 47.2327 136.403 47.298C136.468 47.3633 136.501 47.4473 136.501 47.55V53.948L141.079 47.438C141.163 47.2793 141.298 47.2 141.485 47.2H142.661C142.763 47.2 142.843 47.2327 142.899 47.298C142.964 47.3633 142.997 47.4473 142.997 47.55V56.664C142.997 56.7573 142.964 56.8367 142.899 56.902C142.843 56.9673 142.763 57 142.661 57H141.373C141.27 57 141.186 56.9673 141.121 56.902C141.055 56.8367 141.023 56.7573 141.023 56.664V50.406L136.459 56.762C136.365 56.9207 136.23 57 136.053 57H134.863ZM147.669 57C147.576 57 147.496 56.9673 147.431 56.902C147.366 56.8367 147.333 56.7573 147.333 56.664V48.95H144.743C144.65 48.95 144.57 48.9173 144.505 48.852C144.44 48.7867 144.407 48.7027 144.407 48.6V47.55C144.407 47.4473 144.435 47.3633 144.491 47.298C144.556 47.2327 144.64 47.2 144.743 47.2H151.897C152 47.2 152.084 47.2327 152.149 47.298C152.214 47.3633 152.247 47.4473 152.247 47.55V48.6C152.247 48.7027 152.214 48.7867 152.149 48.852C152.084 48.9173 152 48.95 151.897 48.95H149.321V56.664C149.321 56.7573 149.288 56.8367 149.223 56.902C149.167 56.9673 149.088 57 148.985 57H147.669ZM157.447 57.14C156.159 57.14 155.161 56.8133 154.451 56.16C153.751 55.4973 153.378 54.5593 153.331 53.346C153.322 53.094 153.317 52.6833 153.317 52.114C153.317 51.5353 153.322 51.1153 153.331 50.854C153.378 49.6593 153.756 48.7307 154.465 48.068C155.175 47.396 156.169 47.06 157.447 47.06C158.278 47.06 159.001 47.2047 159.617 47.494C160.233 47.774 160.709 48.1613 161.045 48.656C161.391 49.1507 161.573 49.706 161.591 50.322V50.35C161.591 50.4247 161.559 50.49 161.493 50.546C161.437 50.5927 161.372 50.616 161.297 50.616H159.939C159.827 50.616 159.743 50.5927 159.687 50.546C159.631 50.49 159.585 50.3967 159.547 50.266C159.407 49.6873 159.165 49.2813 158.819 49.048C158.474 48.8053 158.017 48.684 157.447 48.684C156.113 48.684 155.417 49.4307 155.361 50.924C155.352 51.176 155.347 51.5633 155.347 52.086C155.347 52.6087 155.352 53.0053 155.361 53.276C155.417 54.7693 156.113 55.516 157.447 55.516C158.007 55.516 158.46 55.3993 158.805 55.166C159.16 54.9233 159.407 54.5127 159.547 53.934C159.585 53.8033 159.631 53.7147 159.687 53.668C159.743 53.612 159.827 53.584 159.939 53.584H161.297C161.381 53.584 161.451 53.612 161.507 53.668C161.573 53.724 161.601 53.794 161.591 53.878C161.573 54.494 161.391 55.0493 161.045 55.544C160.709 56.0387 160.233 56.4307 159.617 56.72C159.001 57 158.278 57.14 157.447 57.14ZM170.279 47.2C170.382 47.2 170.461 47.2327 170.517 47.298C170.583 47.354 170.615 47.4333 170.615 47.536V56.664C170.615 56.7573 170.583 56.8367 170.517 56.902C170.461 56.9673 170.382 57 170.279 57H168.991C168.889 57 168.805 56.972 168.739 56.916C168.674 56.8507 168.641 56.7667 168.641 56.664V53.472H167.101L165.239 56.622C165.183 56.7433 165.113 56.8367 165.029 56.902C164.945 56.9673 164.829 57 164.679 57H163.391C163.317 57 163.247 56.972 163.181 56.916C163.125 56.86 163.097 56.79 163.097 56.706C163.097 56.6593 163.111 56.608 163.139 56.552L165.169 53.234C164.581 53.01 164.124 52.6553 163.797 52.17C163.471 51.6753 163.307 51.0733 163.307 50.364C163.307 49.776 163.438 49.244 163.699 48.768C163.97 48.2827 164.367 47.9 164.889 47.62C165.421 47.34 166.061 47.2 166.807 47.2H170.279ZM168.641 48.768H166.877C166.392 48.768 166.014 48.9173 165.743 49.216C165.473 49.5053 165.337 49.8927 165.337 50.378C165.337 51.3673 165.851 51.862 166.877 51.862H168.641V48.768Z" fill="#D5DAE1"/>
<defs>
<clipPath id="clip0_1611_23671">
<rect width="34" height="34" fill="white" transform="translate(69)"/>
</clipPath>
</defs>
</svg>
