<svg width="16" height="16" viewBox="0 0 16 16" fill="none" xmlns="http://www.w3.org/2000/svg">
<path d="M13.3337 2.66675H4.00033C3.26499 2.66675 2.66699 3.26475 2.66699 4.00008V7.33342H4.00033V5.33341L8.26699 8.53341C8.38243 8.61986 8.52277 8.66658 8.66699 8.66658C8.81121 8.66658 8.95155 8.61986 9.06699 8.53341L13.3337 5.33341V11.3334H8.00033V12.6667H13.3337C14.069 12.6667 14.667 12.0687 14.667 11.3334V4.00008C14.667 3.26475 14.069 2.66675 13.3337 2.66675ZM8.66699 7.16675L4.44433 4.00008H12.8897L8.66699 7.16675Z" fill="#EC0606"/>
<path d="M1.33301 8H5.99967V9.33333H1.33301V8ZM2.66634 10H6.66634V11.3333H2.66634V10ZM4.66634 12H7.33301V13.3333H4.66634V12Z" fill="#EC0606"/>
</svg>
